<svg id="svg" fill="#000000" stroke="#000000" width="200px" height="200px" version="1.1" viewBox="144 144 512 512" xmlns="http://www.w3.org/2000/svg">
    <g id="IconSvg_bgCarrier" stroke-width="0"></g>
    <g id="IconSvg_tracerCarrier" stroke-linecap="round" stroke-linejoin="round" stroke="#CCCCCC"></g>
     <g id="IconSvg_iconCarrier">
      <defs xmlns="http://www.w3.org/2000/svg">
  <clipPath id="b">
   <path d="m313 457h266v194.9h-266z"></path>
  </clipPath>
  <clipPath id="a">
   <path d="m200 148.09h399v456.91h-399z"></path>
  </clipPath>
 </defs>
<path xmlns="http://www.w3.org/2000/svg" d="m366.7 199.81c-34.793 8.582-64.078 35.031-87.145 78.719-1.8242 3.75-0.41016 8.2734 3.2305 10.312 1.0781 0.61719 2.3008 0.94141 3.543 0.94531 2.8281-0.046874 5.4102-1.6094 6.7695-4.0938 20.859-39.359 46.762-62.977 77.066-70.848 41.957-10.391 78.719 14.168 78.719 14.406 1.5859 1.8594 3.9453 2.875 6.3867 2.75 2.4414-0.125 4.6836-1.375 6.0742-3.3828 1.3906-2.0078 1.7695-4.5508 1.0234-6.8789-0.74219-2.3242-2.5273-4.1758-4.8242-5.0039-26.902-17.301-59.516-23.379-90.844-16.926z"></path>
<g xmlns="http://www.w3.org/2000/svg" clip-path="url(#b)">
  <path d="m572 457.15c-4.1289-0.28516-7.7773 2.6719-8.3477 6.7695-7.0039 43.84-25.84 84.938-54.473 118.87-25.988 31.5-63.863 50.82-104.62 53.375-27.695 1.6836-55.102-6.3945-77.457-22.828-1.5625-1.832-3.8789-2.8516-6.2812-2.7617-2.4062 0.089844-4.6406 1.2734-6.0625 3.2148s-1.8789 4.4297-1.2383 6.75c0.64453 2.3203 2.3086 4.2188 4.5273 5.1523 23.211 17.227 51.395 26.426 80.293 26.215h6.8516c45.066-2.8477 86.938-24.254 115.64-59.117 30.809-36.141 50.906-80.176 58.016-127.13 0.37109-4.2148-2.6523-7.9688-6.8477-8.5039z"></path>
 </g>
<path xmlns="http://www.w3.org/2000/svg" d="m386.54 557.44c3.4648 0.53125 6.9648 0.79297 10.469 0.78906 57.309 0 103.91-70.848 103.91-158.3 0-87.461-46.602-157.99-103.91-157.99-57.309 0-103.91 70.848-103.91 158.3-0.14062 27.129 4.6055 54.062 14.012 79.508 2.1016 2.8477 5.8477 3.9453 9.1523 2.6758 3.3047-1.2656 5.3555-4.5859 5.0156-8.1094-8.7578-23.785-13.129-48.965-12.91-74.309 0-78.719 39.754-143.04 88.641-143.04 48.883 0 88.637 64.312 88.637 143.04 0 78.719-39.754 143.27-88.637 143.27-2.793-0.023437-5.582-0.23438-8.3438-0.62891-4.1133-0.4375-7.8594 2.3828-8.582 6.4531-0.30469 4.0273 2.4844 7.6289 6.457 8.3438z"></path>
<path xmlns="http://www.w3.org/2000/svg" d="m395.67 303.88c9.918 0 19.918 7.8711 28.184 21.41 2.543 2.6172 6.5547 3.1406 9.6875 1.2656 3.1328-1.875 4.5625-5.6562 3.457-9.1367-11.18-18.578-25.82-28.812-41.328-28.812-34.32 0-61.246 49.438-61.246 112.49 0 63.055 26.922 112.49 61.246 112.49 34.32 0 61.164-49.359 61.164-112.49h0.003907c0.007812-10.301-0.72656-20.586-2.207-30.781 0.22266-2.4102-0.67578-4.7852-2.4336-6.4492-1.7617-1.6602-4.1875-2.418-6.5781-2.0586-2.3945 0.36328-4.4883 1.8047-5.6797 3.9102-1.1914 2.1094-1.3438 4.6445-0.42188 6.8828 1.4141 9.4336 2.125 18.957 2.125 28.496 0 52.742-21.098 97.297-45.973 97.297s-45.973-44.555-45.973-97.297c0-52.742 21.098-97.219 45.973-97.219z"></path>
<g xmlns="http://www.w3.org/2000/svg" clip-path="url(#a)">
  <path d="m598.53 258.85c-0.10156-14.465-5.8906-28.309-16.109-38.543-10.223-10.234-24.059-16.043-38.523-16.168-8.5859 0.03125-17.047 2.0508-24.719 5.9062-15.844-18.332-35.234-33.27-57-43.918-21.766-10.645-45.461-16.781-69.66-18.035-4.3477 0-7.8711 3.5234-7.8711 7.8711 0 2.0898 0.82812 4.0898 2.3047 5.5664s3.4805 2.3047 5.5664 2.3047c43.766 2.7383 84.719 22.523 114.07 55.105-12.336 11.508-18.652 28.074-17.113 44.871 1.5391 16.801 10.762 31.941 24.984 41.012 9.832 28.594 14.781 58.641 14.645 88.875 0 107.85-59.516 195.23-132.64 195.23-34.164 0-66.359-19.051-91.156-53.688h-0.003906c7.0469-14.441 7.3594-31.262 0.84766-45.957-6.5156-14.695-19.184-25.762-34.617-30.242-5.2109-21.496-7.8555-43.535-7.8711-65.652-0.007812-15.398 1.2305-30.773 3.6992-45.973-0.27344-3.6289-3-6.6016-6.5938-7.1797-3.5977-0.58203-7.1172 1.3789-8.5195 4.7383-2.5625 16.012-3.8516 32.199-3.8594 48.414 0.027344 21.336 2.3477 42.609 6.9297 63.449-8.7773 0.042968-17.406 2.2617-25.113 6.4531-42.746-189.95 90.605-277.33 96.434-281.03 2.3867-0.64844 4.332-2.3828 5.25-4.6836 0.91406-2.3008 0.69531-4.8984-0.59375-7.0117-1.2891-2.1133-3.4961-3.4961-5.9609-3.7344-2.4648-0.24219-4.8984 0.69531-6.5703 2.5195-1.4961 0.94531-151.38 98.559-101.47 304.33-10.59 10.383-16.504 24.621-16.383 39.453 0.11719 14.828 6.2617 28.973 17.016 39.18 10.754 10.211 25.199 15.609 40.012 14.957 14.816-0.64844 28.73-7.2969 38.547-18.41 27.316 35.977 62.977 55.656 100.29 55.656 81.242 0.15625 147.6-94.309 147.6-210.82 0.13672-27.52-3.7344-54.914-11.492-81.316 3.6289 0.73047 7.3203 1.0977 11.02 1.1016 4.3789 0 8.7383-0.52734 12.988-1.5742 6.7383 23.148 11.348 46.863 13.777 70.848 0.51563 3.9453 3.8945 6.8828 7.8711 6.8516h0.78906c4.1289-0.57422 7.1016-4.2656 6.7695-8.4258-2.5469-25.496-7.5039-50.695-14.801-75.254 16.824-9.7148 27.203-27.652 27.238-47.078zm-342.43 292.29c-10.438 0-20.449-4.1445-27.832-11.527-7.3828-7.3828-11.527-17.395-11.527-27.832s4.1445-20.449 11.527-27.832c7.3828-7.3828 17.395-11.527 27.832-11.527s20.449 4.1445 27.832 11.527c7.3828 7.3828 11.527 17.395 11.527 27.832s-4.1445 20.449-11.527 27.832c-7.3828 7.3828-17.395 11.527-27.832 11.527zm287.8-252.93c-10.438 0-20.449-4.1484-27.832-11.531-7.3789-7.3789-11.527-17.391-11.527-27.832 0-10.438 4.1484-20.449 11.527-27.832 7.3828-7.3789 17.395-11.527 27.832-11.527 10.441 0 20.449 4.1484 27.832 11.527 7.3828 7.3828 11.527 17.395 11.527 27.832 0 10.441-4.1445 20.453-11.527 27.832-7.3828 7.3828-17.391 11.531-27.832 11.531z"></path>
 </g>

      </g>
      </svg>